<svg width="682" height="721" viewBox="0 0 682 721" fill="none" xmlns="http://www.w3.org/2000/svg">
<path d="M127.694 199.689C162.717 162.742 214.894 150.811 271.007 161.476C327.117 172.14 387.113 205.393 437.673 258.733C488.233 312.072 519.755 375.366 529.863 434.561C539.972 493.758 528.663 548.803 493.641 585.751C458.618 622.699 406.441 634.629 350.328 623.965C294.218 613.301 234.221 580.047 183.661 526.707C133.101 473.368 101.58 410.074 91.4714 350.879C81.3626 291.682 92.6716 236.637 127.694 199.689Z" stroke="white"/>
<path d="M158.027 167.689C193.049 130.742 245.227 118.811 301.339 129.476C357.45 140.14 417.446 173.393 468.006 226.733C518.566 280.072 550.088 343.366 560.196 402.561C570.305 461.758 558.996 516.803 523.973 553.751C488.951 590.699 436.773 602.629 380.661 591.965C324.55 581.301 264.554 548.047 213.994 494.707C163.434 441.368 131.912 378.074 121.804 318.879C111.695 259.682 123.004 204.637 158.027 167.689Z" stroke="white"/>
<path d="M188.359 135.689C223.382 98.7417 275.559 86.8112 331.672 97.4756C387.782 108.14 447.778 141.393 498.338 194.733C548.899 248.072 580.42 311.366 590.529 370.561C600.637 429.758 589.328 484.803 554.306 521.751C519.283 558.699 467.106 570.629 410.993 559.965C354.883 549.301 294.886 516.047 244.326 462.707C193.766 409.368 162.245 346.074 152.137 286.879C142.028 227.682 153.337 172.637 188.359 135.689Z" stroke="white"/>
</svg>
